# xmcd
#
# Track frame offsets:
# 150
# 19365
# 34345
# 66721
# 95773
# 113372
# 132115
# 157795
# 179323
# 224368
# 249351
#
# Disc length: 4768 seconds
#
# Revision: 0
# Processed by: cddbd v1.5.2PL0 Copyright (c) Steve Scherf et al.
# Submitted via: CoinsHifi v1.9h contact@coinshifi.com
#
DISCID=96129e0b
DTITLE=EZO - ADORATION
DYEAR=2009
DGENRE=Country
TTITLE0=FRHU
TTITLE1=MOHURGA
TTITLE2=FRZG
TTITLE3=DFZEFA3G
TTITLE4=BTYDHEJ
TTITLE5=HRDYH
TTITLE6=BTHE6Y
TTITLE7=FUI
TTITLE8=KIUIL
TTITLE9=NFDJ45
TTITLE10=JU6TF
EXTD=
EXTT0=Remix
EXTT1=Remix
EXTT2=Remix
EXTT3=Remix
EXTT4=Remix
EXTT5=Remix
EXTT6=Remix
EXTT7=Remix
EXTT8=Remix
EXTT9=Remix
EXTT10=Remix
PLAYORDER=
